<svg width="1397" height="858" viewBox="0 0 1397 858" fill="none" xmlns="http://www.w3.org/2000/svg">
<path opacity="0.8" d="M50.3088 643.204L50.4129 645.201L50.3088 643.204ZM138.456 759.781C138.623 758.689 137.874 757.669 136.782 757.501C135.69 757.334 134.669 758.083 134.502 759.175L138.456 759.781ZM79.1473 760.092C79.4864 761.143 80.6135 761.721 81.6648 761.382C82.716 761.042 83.2932 759.915 82.9541 758.864L79.1473 760.092ZM146.726 466.917L147.65 468.691L146.726 466.917ZM285.064 620.074L287.012 619.622L285.064 620.074ZM212.402 594.444L214.395 594.281L212.402 594.444ZM388.468 186.857L388.119 184.888L388.468 186.857ZM663.28 620.074L661.325 619.654L663.28 620.074ZM573.384 529.43L575.371 529.207L573.384 529.43ZM905.726 4.32219C904.692 3.93327 903.539 4.45608 903.15 5.48992C902.761 6.52375 903.284 7.67712 904.318 8.06604L905.726 4.32219ZM1079.23 620.074L1077.66 618.826L1079.23 620.074ZM967.437 370.647L965.48 370.233L967.437 370.647ZM1260.42 54.8307C1259.31 54.8307 1258.42 55.7261 1258.42 56.8307C1258.42 57.9352 1259.31 58.8307 1260.42 58.8307V54.8307ZM5.17406 842.267C5.13507 841.163 4.20859 840.3 3.1047 840.339C2.00082 840.378 1.13756 841.304 1.17655 842.408L5.17406 842.267ZM0.330037 813.102C0.353651 814.207 1.26802 815.083 2.37234 815.059C3.47665 815.035 4.35274 814.121 4.32912 813.017L0.330037 813.102ZM4.00016 783.75C4.00076 782.646 3.10581 781.75 2.00124 781.749C0.896675 781.749 0.000758767 782.644 0.000159264 783.748L4.00016 783.75ZM0.486323 754.388C0.447316 755.492 1.31057 756.418 2.41445 756.457C3.51833 756.496 4.44482 755.633 4.48383 754.529L0.486323 754.388ZM6.27976 725.433C6.38262 724.333 5.57447 723.359 4.4747 723.256C3.37493 723.153 2.4 723.961 2.29714 725.061L6.27976 725.433ZM6.43933 695.861C6.21909 696.943 6.918 697.999 8.00039 698.219C9.08278 698.44 10.1388 697.741 10.359 696.658L6.43933 695.861ZM18.9461 669.228C19.4211 668.231 18.9977 667.037 18.0005 666.562C17.0032 666.088 15.8098 666.511 15.3348 667.508L18.9461 669.228ZM35.3147 645.051C34.3297 645.551 33.9362 646.755 34.436 647.74C34.9357 648.725 36.1393 649.118 37.1244 648.619L35.3147 645.051ZM66.2826 646.377C67.366 646.593 68.4188 645.889 68.6342 644.806C68.8496 643.722 68.146 642.669 67.0626 642.454L66.2826 646.377ZM97.7158 655.962C96.8155 655.322 95.5669 655.533 94.9269 656.433C94.287 657.333 94.498 658.582 95.3983 659.222L97.7158 655.962ZM117.799 682.131C118.426 683.04 119.671 683.269 120.581 682.642C121.49 682.015 121.719 680.77 121.092 679.86L117.799 682.131ZM135.401 710.037C135.09 708.977 133.979 708.37 132.919 708.68C131.859 708.991 131.251 710.102 131.562 711.162L135.401 710.037ZM135.853 743.057C135.838 744.162 136.721 745.069 137.825 745.084C138.93 745.099 139.837 744.216 139.852 743.112L135.853 743.057ZM130.031 773.609C129.558 774.607 129.984 775.8 130.982 776.272C131.981 776.745 133.173 776.319 133.646 775.321L130.031 773.609ZM109.133 796.016C110.238 796.006 111.125 795.102 111.115 793.998C111.105 792.893 110.201 792.006 109.097 792.016L109.133 796.016ZM88.6066 773.244C88.1246 772.251 86.9281 771.836 85.9343 772.318C84.9405 772.8 84.5256 773.996 85.0077 774.99L88.6066 773.244ZM79.6563 743.976C79.4856 742.885 78.4626 742.139 77.3713 742.309C76.28 742.48 75.5337 743.503 75.7044 744.594L79.6563 743.976ZM72.8172 713.202C72.866 714.305 73.8002 715.16 74.9037 715.111C76.0071 715.063 76.8621 714.128 76.8133 713.025L72.8172 713.202ZM76.4708 681.826C76.4919 680.721 75.6137 679.809 74.5094 679.788C73.405 679.767 72.4926 680.645 72.4715 681.749L76.4708 681.826ZM73.9174 650.36C73.8375 651.461 74.6658 652.419 75.7674 652.499C76.8691 652.579 77.827 651.751 77.9069 650.649L73.9174 650.36ZM80.9927 619.586C81.1319 618.49 80.3564 617.489 79.2607 617.35C78.1649 617.211 77.1638 617.986 77.0246 619.082L80.9927 619.586ZM81.9117 588.032C81.7056 589.117 82.4181 590.164 83.5033 590.37C84.5884 590.576 85.6352 589.864 85.8414 588.779L81.9117 588.032ZM92.7848 558.397C93.0743 557.331 92.4449 556.232 91.379 555.943C90.313 555.653 89.2142 556.282 88.9246 557.348L92.7848 558.397ZM98.7167 527.386C98.3137 528.414 98.8207 529.575 99.8491 529.978C100.878 530.381 102.038 529.874 102.441 528.846L98.7167 527.386ZM115.941 501.008C116.513 500.063 116.211 498.833 115.266 498.261C114.322 497.689 113.092 497.991 112.52 498.935L115.941 501.008ZM132.558 474.288C131.726 475.015 131.642 476.279 132.369 477.11C133.096 477.942 134.36 478.026 135.191 477.299L132.558 474.288ZM160.857 463.543C161.927 463.268 162.571 462.178 162.296 461.108C162.021 460.039 160.93 459.394 159.861 459.669L160.857 463.543ZM189.878 460.649C188.829 460.303 187.698 460.873 187.352 461.922C187.006 462.971 187.575 464.102 188.624 464.448L189.878 460.649ZM212.863 479.084C213.689 479.816 214.953 479.74 215.686 478.913C216.418 478.087 216.342 476.822 215.516 476.09L212.863 479.084ZM235.232 498.277C234.583 497.384 233.332 497.186 232.439 497.835C231.545 498.484 231.347 499.735 231.996 500.629L235.232 498.277ZM247.387 525.242C247.916 526.212 249.13 526.57 250.1 526.041C251.07 525.513 251.428 524.298 250.9 523.328L247.387 525.242ZM263.779 549.852C263.339 548.839 262.161 548.374 261.148 548.814C260.135 549.254 259.67 550.432 260.11 551.445L263.779 549.852ZM270.75 578.617C271.117 579.659 272.259 580.206 273.301 579.839C274.343 579.472 274.89 578.33 274.523 577.288L270.75 578.617ZM283.371 605.384C283.076 604.32 281.974 603.696 280.91 603.991C279.845 604.286 279.221 605.388 279.516 606.453L283.371 605.384ZM285.363 634.442C285.473 635.542 286.453 636.344 287.552 636.234C288.651 636.124 289.453 635.145 289.343 634.045L285.363 634.442ZM289.514 663.138C289.599 662.036 288.775 661.075 287.673 660.99C286.572 660.906 285.611 661.73 285.526 662.832L289.514 663.138ZM281.277 690.979C281.032 692.056 281.706 693.128 282.783 693.373C283.86 693.618 284.932 692.944 285.177 691.867L281.277 690.979ZM276.112 719.586C276.574 718.583 276.134 717.395 275.13 716.934C274.127 716.473 272.939 716.912 272.478 717.916L276.112 719.586ZM255.359 737.396C254.269 737.578 253.534 738.609 253.716 739.698C253.898 740.787 254.929 741.523 256.018 741.341L255.359 737.396ZM234.029 722.14C234.49 723.143 235.678 723.583 236.681 723.122C237.685 722.66 238.124 721.473 237.663 720.469L234.029 722.14ZM228.737 693.698C228.467 692.627 227.38 691.978 226.309 692.248C225.238 692.519 224.589 693.606 224.859 694.677L228.737 693.698ZM218.994 666.404C219.181 667.492 220.215 668.224 221.304 668.037C222.392 667.85 223.123 666.816 222.936 665.727L218.994 666.404ZM218.753 637.183C218.616 636.087 217.616 635.309 216.52 635.447C215.424 635.584 214.647 636.583 214.784 637.679L218.753 637.183ZM211.692 609.237C211.795 610.337 212.77 611.144 213.87 611.041C214.97 610.937 215.777 609.962 215.674 608.862L211.692 609.237ZM213.336 579.408C213.269 578.305 212.32 577.466 211.218 577.533C210.115 577.6 209.276 578.548 209.343 579.651L213.336 579.408ZM208.169 549.907C208.189 551.012 209.1 551.891 210.204 551.872C211.309 551.852 212.188 550.941 212.169 549.836L208.169 549.907ZM212.314 520.141C212.344 519.036 211.474 518.116 210.37 518.086C209.266 518.055 208.346 518.925 208.315 520.029L212.314 520.141ZM209.864 490.234C209.78 491.335 210.604 492.297 211.705 492.381C212.807 492.465 213.768 491.641 213.852 490.539L209.864 490.234ZM216.863 461.075C217.004 459.98 216.23 458.977 215.135 458.837C214.039 458.696 213.037 459.47 212.896 460.565L216.863 461.075ZM217.504 431.06C217.303 432.146 218.021 433.19 219.108 433.39C220.194 433.591 221.237 432.873 221.437 431.787L217.504 431.06ZM227.656 402.82C227.92 401.747 227.264 400.664 226.191 400.4C225.119 400.137 224.035 400.792 223.772 401.865L227.656 402.82ZM231.776 373.147C231.446 374.201 232.033 375.323 233.087 375.653C234.141 375.983 235.263 375.396 235.593 374.342L231.776 373.147ZM245.379 346.372C245.779 345.343 245.269 344.184 244.239 343.784C243.21 343.384 242.051 343.894 241.651 344.924L245.379 346.372ZM253.473 317.464C252.999 318.462 253.423 319.655 254.421 320.129C255.419 320.603 256.612 320.178 257.086 319.18L253.473 317.464ZM270.814 292.986C271.366 292.029 271.038 290.806 270.082 290.254C269.125 289.702 267.902 290.03 267.35 290.987L270.814 292.986ZM283.404 265.775C282.768 266.679 282.986 267.926 283.89 268.561C284.794 269.196 286.041 268.978 286.676 268.075L283.404 265.775ZM304.848 244.777C305.572 243.943 305.483 242.68 304.649 241.956C303.815 241.232 302.552 241.321 301.827 242.155L304.848 244.777ZM322.784 220.734C321.962 221.473 321.896 222.737 322.634 223.559C323.373 224.38 324.638 224.446 325.459 223.708L322.784 220.734ZM348.743 205.743C349.671 205.144 349.937 203.906 349.338 202.978C348.738 202.05 347.5 201.784 346.573 202.383L348.743 205.743ZM373.462 188.837C372.421 189.208 371.879 190.352 372.251 191.393C372.622 192.433 373.766 192.975 374.807 192.604L373.462 188.837ZM403.296 188.592C404.392 188.73 405.392 187.954 405.531 186.858C405.669 185.762 404.893 184.762 403.797 184.623L403.296 188.592ZM433.195 194.381C432.211 193.879 431.007 194.271 430.505 195.255C430.004 196.239 430.395 197.443 431.38 197.945L433.195 194.381ZM456.718 214.022C457.602 214.684 458.856 214.504 459.518 213.62C460.18 212.736 460 211.483 459.116 210.821L456.718 214.022ZM482.573 230.524C481.763 229.773 480.498 229.821 479.747 230.631C478.996 231.442 479.044 232.707 479.855 233.458L482.573 230.524ZM501.29 254.916C502.043 255.724 503.309 255.769 504.117 255.016C504.925 254.263 504.97 252.998 504.217 252.189L501.29 254.916ZM524.33 275.1C523.625 274.25 522.364 274.133 521.514 274.839C520.664 275.544 520.547 276.805 521.253 277.655L524.33 275.1ZM540.058 301.461C540.722 302.343 541.976 302.52 542.859 301.856C543.741 301.192 543.918 299.938 543.254 299.055L540.058 301.461ZM561.073 323.816C560.447 322.906 559.202 322.676 558.292 323.303C557.382 323.929 557.152 325.175 557.779 326.084L561.073 323.816ZM574.49 351.419C575.08 352.352 576.316 352.631 577.249 352.041C578.183 351.451 578.462 350.216 577.872 349.282L574.49 351.419ZM593.665 375.371C593.111 374.415 591.887 374.089 590.932 374.643C589.976 375.197 589.65 376.421 590.204 377.376L593.665 375.371ZM604.905 403.921C605.421 404.897 606.631 405.27 607.608 404.754C608.585 404.238 608.958 403.028 608.442 402.051L604.905 403.921ZM622.149 429.317C621.674 428.32 620.48 427.897 619.483 428.373C618.486 428.848 618.063 430.042 618.539 431.039L622.149 429.317ZM630.97 458.674C631.399 459.691 632.573 460.168 633.59 459.738C634.608 459.309 635.084 458.135 634.655 457.118L630.97 458.674ZM645.823 485.568C645.447 484.529 644.301 483.992 643.262 484.367C642.223 484.743 641.686 485.89 642.062 486.929L645.823 485.568ZM651.487 515.702C651.796 516.763 652.906 517.372 653.967 517.063C655.027 516.753 655.636 515.643 655.327 514.583L651.487 515.702ZM662.723 544.207C662.502 543.125 661.445 542.427 660.363 542.649C659.281 542.87 658.583 543.927 658.804 545.009L662.723 544.207ZM663.269 574.896C663.365 575.996 664.336 576.81 665.436 576.713C666.536 576.616 667.35 575.646 667.253 574.546L663.269 574.896ZM667.481 605.255C667.576 604.155 666.761 603.186 665.66 603.09C664.56 602.995 663.591 603.81 663.495 604.911L667.481 605.255ZM657.767 633.215C657.435 634.269 658.02 635.392 659.074 635.723C660.127 636.055 661.25 635.47 661.582 634.416L657.767 633.215ZM649.241 660.576C649.886 659.679 649.681 658.429 648.784 657.785C647.888 657.14 646.638 657.344 645.993 658.241L649.241 660.576ZM624.48 669.786C623.409 669.518 622.323 670.169 622.054 671.241C621.786 672.312 622.437 673.398 623.509 673.666L624.48 669.786ZM602.104 653.777C602.66 654.731 603.885 655.054 604.839 654.498C605.793 653.942 606.116 652.717 605.56 651.763L602.104 653.777ZM594.423 626.217C594.069 625.171 592.935 624.609 591.888 624.963C590.842 625.316 590.28 626.451 590.634 627.498L594.423 626.217ZM582.911 599.928C583.162 601.003 584.238 601.672 585.314 601.421C586.389 601.169 587.057 600.094 586.806 599.018L582.911 599.928ZM581.263 571.362C581.076 570.273 580.041 569.543 578.953 569.73C577.864 569.917 577.133 570.951 577.321 572.04L581.263 571.362ZM573.108 543.848C573.25 544.944 574.253 545.717 575.348 545.575C576.444 545.434 577.217 544.431 577.075 543.335L573.108 543.848ZM574.12 514.738C574.053 513.635 573.104 512.797 572.001 512.865C570.899 512.932 570.06 513.881 570.128 514.984L574.12 514.738ZM569.664 485.399C569.633 486.503 570.504 487.422 571.608 487.453C572.712 487.483 573.632 486.613 573.662 485.509L569.664 485.399ZM575.587 456.409C575.7 455.31 574.901 454.328 573.802 454.215C572.703 454.102 571.721 454.901 571.608 455.999L575.587 456.409ZM575.599 426.776C575.415 427.865 576.148 428.897 577.238 429.081C578.327 429.265 579.359 428.531 579.543 427.442L575.599 426.776ZM585.252 398.724C585.497 397.647 584.823 396.575 583.746 396.329C582.669 396.084 581.597 396.758 581.352 397.835L585.252 398.724ZM588.638 369.262C588.338 370.325 588.957 371.43 590.021 371.729C591.084 372.029 592.189 371.409 592.488 370.346L588.638 369.262ZM601.069 342.374C601.416 341.325 600.848 340.193 599.8 339.846C598.751 339.498 597.62 340.066 597.272 341.115L601.069 342.374ZM607.136 313.364C606.745 314.397 607.265 315.551 608.297 315.943C609.33 316.334 610.485 315.815 610.876 314.782L607.136 313.364ZM621.809 287.602C622.241 286.586 621.768 285.411 620.751 284.979C619.735 284.547 618.56 285.02 618.128 286.037L621.809 287.602ZM630.171 259.16C629.7 260.159 630.129 261.351 631.128 261.821C632.127 262.292 633.319 261.863 633.79 260.864L630.171 259.16ZM646.762 234.599C647.27 233.618 646.886 232.411 645.905 231.904C644.924 231.397 643.717 231.781 643.209 232.762L646.762 234.599ZM657.214 206.865C656.671 207.826 657.01 209.047 657.972 209.59C658.934 210.133 660.154 209.794 660.697 208.832L657.214 206.865ZM675.593 183.582C676.172 182.642 675.879 181.41 674.938 180.831C673.998 180.252 672.766 180.545 672.187 181.485L675.593 183.582ZM688.12 156.698C687.504 157.615 687.749 158.858 688.666 159.473C689.583 160.089 690.826 159.844 691.441 158.927L688.12 156.698ZM708.257 134.953C708.91 134.062 708.718 132.81 707.827 132.157C706.936 131.504 705.685 131.696 705.031 132.587L708.257 134.953ZM722.955 109.271C722.261 110.13 722.396 111.39 723.256 112.083C724.116 112.776 725.375 112.642 726.068 111.782L722.955 109.271ZM745.057 89.4318C745.795 88.6096 745.726 87.3451 744.904 86.6076C744.081 85.87 742.817 85.9388 742.079 86.761L745.057 89.4318ZM762.428 65.3989C761.641 66.174 761.631 67.4403 762.406 68.2273C763.181 69.0143 764.448 69.024 765.235 68.2489L762.428 65.3989ZM786.763 48.558C787.607 47.8458 787.714 46.584 787.002 45.7397C786.29 44.8955 785.028 44.7885 784.184 45.5007L786.763 48.558ZM807.698 27.5352C806.785 28.1577 806.55 29.402 807.173 30.3145C807.795 31.2269 809.04 31.4619 809.952 30.8394L807.698 27.5352ZM835.042 16.1192C836.035 15.6362 836.449 14.4393 835.966 13.446C835.483 12.4526 834.286 12.039 833.293 12.522L835.042 16.1192ZM861.258 2.37778C860.182 2.62492 859.509 3.69799 859.756 4.77456C860.004 5.85112 861.077 6.52351 862.153 6.27638L861.258 2.37778ZM890.547 4.61335C891.642 4.76109 892.649 3.99347 892.797 2.89883C892.945 1.80418 892.177 0.797032 891.082 0.649295L890.547 4.61335ZM917.357 14.6805C918.289 15.2738 919.525 14.9994 920.119 14.0676C920.712 13.1359 920.438 11.8996 919.506 11.3064L917.357 14.6805ZM942.83 31.2235C942.076 30.4165 940.81 30.3736 940.003 31.1278C939.196 31.8819 939.153 33.1475 939.907 33.9546L942.83 31.2235ZM958.668 57.3544C959.303 58.2584 960.55 58.4768 961.454 57.8421C962.358 57.2074 962.577 55.9601 961.942 55.056L958.668 57.3544ZM978.185 80.6721C977.633 79.7157 976.409 79.3882 975.453 79.9407C974.497 80.4932 974.169 81.7165 974.722 82.6729L978.185 80.6721ZM988.953 109.297C989.444 110.286 990.644 110.689 991.634 110.198C992.623 109.706 993.026 108.506 992.535 107.517L988.953 109.297ZM1005.37 135.047C1004.93 134.035 1003.75 133.575 1002.74 134.019C1001.73 134.463 1001.27 135.642 1001.71 136.654L1005.37 135.047ZM1013.27 164.481C1013.68 165.508 1014.84 166.013 1015.87 165.608C1016.89 165.204 1017.4 164.042 1016.99 163.015L1013.27 164.481ZM1027.64 191.409C1027.27 190.369 1026.13 189.827 1025.09 190.199C1024.05 190.57 1023.5 191.715 1023.88 192.755L1027.64 191.409ZM1033.63 221.358C1033.97 222.408 1035.1 222.982 1036.15 222.64C1037.2 222.298 1037.78 221.169 1037.44 220.119L1033.63 221.358ZM1046.46 249.072C1046.14 248.013 1045.03 247.411 1043.97 247.727C1042.91 248.042 1042.31 249.156 1042.63 250.214L1046.46 249.072ZM1050.91 279.273C1051.2 280.339 1052.3 280.967 1053.37 280.677C1054.43 280.386 1055.06 279.287 1054.77 278.221L1050.91 279.273ZM1062.41 307.542C1062.15 306.47 1061.06 305.817 1059.99 306.083C1058.92 306.35 1058.26 307.435 1058.53 308.507L1062.41 307.542ZM1065.5 337.916C1065.75 338.994 1066.82 339.67 1067.89 339.427C1068.97 339.184 1069.65 338.114 1069.4 337.036L1065.5 337.916ZM1075.75 366.684C1075.53 365.601 1074.47 364.901 1073.39 365.12C1072.31 365.339 1071.61 366.394 1071.83 367.477L1075.75 366.684ZM1077.48 397.166C1077.67 398.253 1078.71 398.978 1079.8 398.784C1080.89 398.59 1081.61 397.552 1081.42 396.464L1077.48 397.166ZM1086.36 426.35C1086.2 425.258 1085.18 424.508 1084.09 424.674C1082.99 424.841 1082.24 425.861 1082.41 426.953L1086.36 426.35ZM1086.54 456.796C1086.68 457.892 1087.68 458.671 1088.77 458.535C1089.87 458.4 1090.65 457.401 1090.51 456.305L1086.54 456.796ZM1093.76 486.573C1093.66 485.473 1092.69 484.661 1091.59 484.759C1090.48 484.858 1089.67 485.829 1089.77 486.93L1093.76 486.573ZM1091.85 517.019C1091.9 518.122 1092.83 518.975 1093.94 518.924C1095.04 518.872 1095.89 517.936 1095.84 516.833L1091.85 517.019ZM1096.39 547.233C1096.41 546.128 1095.53 545.22 1094.42 545.205C1093.32 545.189 1092.41 546.071 1092.4 547.176L1096.39 547.233ZM1090.62 577.08C1090.49 578.177 1091.28 579.169 1092.38 579.296C1093.47 579.422 1094.47 578.635 1094.59 577.538L1090.62 577.08ZM1088.1 607.648C1088.48 606.612 1087.95 605.462 1086.91 605.08C1085.87 604.699 1084.72 605.23 1084.34 606.266L1088.1 607.648ZM1067.64 629.991C1066.85 630.763 1066.84 632.029 1067.61 632.819C1068.38 633.609 1069.65 633.624 1070.44 632.852L1067.64 629.991ZM1044.36 649.325C1045.42 649.024 1046.04 647.919 1045.74 646.856C1045.44 645.793 1044.34 645.175 1043.27 645.476L1044.36 649.325ZM1015.99 641.191C1015.05 640.601 1013.82 640.879 1013.23 641.813C1012.64 642.747 1012.92 643.982 1013.85 644.572L1015.99 641.191ZM992.576 622.2C993.178 623.126 994.417 623.388 995.343 622.785C996.269 622.183 996.531 620.944 995.928 620.018L992.576 622.2ZM982.479 593.445C982.068 592.419 980.904 591.92 979.879 592.33C978.853 592.741 978.354 593.904 978.765 594.93L982.479 593.445ZM969.28 566.018C969.565 567.085 970.662 567.719 971.729 567.434C972.796 567.149 973.43 566.053 973.145 564.986L969.28 566.018ZM966.724 535.619C966.533 534.531 965.497 533.803 964.409 533.993C963.321 534.183 962.593 535.219 962.783 536.307L966.724 535.619ZM958.675 506.194C958.785 507.293 959.765 508.095 960.864 507.985C961.964 507.875 962.765 506.894 962.655 505.795L958.675 506.194ZM960.664 475.761C960.628 474.657 959.703 473.792 958.599 473.829C957.495 473.866 956.63 474.79 956.667 475.894L960.664 475.761ZM956.639 445.541C956.605 446.645 957.471 447.568 958.576 447.602C959.68 447.637 960.603 446.77 960.637 445.666L956.639 445.541ZM962.575 415.64C962.683 414.541 961.879 413.562 960.78 413.454C959.681 413.346 958.702 414.15 958.594 415.249L962.575 415.64ZM962.628 385.154C962.441 386.242 963.173 387.276 964.261 387.463C965.35 387.649 966.384 386.918 966.57 385.829L962.628 385.154ZM972.864 356.467C973.146 355.399 972.508 354.305 971.44 354.023C970.372 353.742 969.278 354.379 968.996 355.447L972.864 356.467ZM978.029 326.445C977.657 327.485 978.198 328.63 979.238 329.002C980.278 329.375 981.423 328.834 981.795 327.794L978.029 326.445ZM992.993 299.891C993.441 298.882 992.986 297.7 991.977 297.252C990.967 296.804 989.785 297.259 989.337 298.268L992.993 299.891ZM1002.57 270.956C1002.06 271.934 1002.43 273.143 1003.41 273.657C1004.39 274.17 1005.6 273.793 1006.11 272.815L1002.57 270.956ZM1020.91 246.604C1021.48 245.659 1021.17 244.429 1020.23 243.858C1019.28 243.287 1018.05 243.59 1017.48 244.535L1020.91 246.604ZM1033.9 219.036C1033.28 219.947 1033.51 221.192 1034.42 221.816C1035.33 222.44 1036.58 222.207 1037.2 221.295L1033.9 219.036ZM1054.89 196.936C1055.57 196.061 1055.4 194.805 1054.53 194.131C1053.65 193.458 1052.4 193.622 1051.72 194.497L1054.89 196.936ZM1070.88 170.983C1070.16 171.82 1070.25 173.082 1071.09 173.804C1071.93 174.526 1073.19 174.433 1073.91 173.596L1070.88 170.983ZM1094.23 151.385C1095 150.592 1094.98 149.326 1094.19 148.557C1093.39 147.787 1092.13 147.806 1091.36 148.599L1094.23 151.385ZM1113.17 127.498C1112.35 128.24 1112.29 129.505 1113.03 130.323C1113.77 131.142 1115.03 131.204 1115.85 130.462L1113.17 127.498ZM1138.82 111.066C1139.69 110.385 1139.84 109.128 1139.16 108.258C1138.48 107.388 1137.23 107.235 1136.36 107.916L1138.82 111.066ZM1161.03 90.1973C1160.11 90.8012 1159.85 92.0405 1160.45 92.9654C1161.06 93.8903 1162.29 94.1506 1163.22 93.5467L1161.03 90.1973ZM1189.17 78.4508C1190.16 77.9499 1190.55 76.7457 1190.05 75.7613C1189.55 74.7768 1188.34 74.3849 1187.36 74.8859L1189.17 78.4508ZM1215.37 62.9389C1214.33 63.2948 1213.77 64.431 1214.13 65.4767C1214.48 66.5223 1215.62 67.0814 1216.66 66.7255L1215.37 62.9389ZM1245.64 59.8093C1246.74 59.6676 1247.51 58.6647 1247.37 57.5693C1247.23 56.4739 1246.22 55.7007 1245.13 55.8424L1245.64 59.8093ZM1275.65 59.1827C1276.75 59.2336 1277.69 58.3803 1277.74 57.2769C1277.79 56.1735 1276.94 55.2378 1275.83 55.187L1275.65 59.1827ZM1306.52 57.9739C1305.42 57.826 1304.41 58.5934 1304.27 59.688C1304.12 60.7827 1304.89 61.79 1305.98 61.9379L1306.52 57.9739ZM1335.96 67.2877C1337.04 67.5267 1338.11 66.8463 1338.35 65.7679C1338.59 64.6895 1337.91 63.6215 1336.83 63.3825L1335.96 67.2877ZM1366.6 71.2599C1365.55 70.9347 1364.43 71.5269 1364.1 72.5825C1363.78 73.6382 1364.37 74.7575 1365.43 75.0827L1366.6 71.2599ZM1394.17 85.2173C1395.19 85.6269 1396.36 85.1273 1396.77 84.1014C1397.18 83.0756 1396.68 81.912 1395.65 81.5024L1394.17 85.2173ZM5.72868 856.92C5.52975 851.968 5.34419 847.083 5.17406 842.267L1.17655 842.408C1.34694 847.232 1.53275 852.123 1.73191 857.08L5.72868 856.92ZM4.32912 813.017C4.11246 802.884 3.99507 793.121 4.00016 783.75L0.000159264 783.748C-0.00494576 793.153 0.112868 802.946 0.330037 813.102L4.32912 813.017ZM4.48383 754.529C4.84933 744.186 5.43424 734.473 6.27976 725.433L2.29714 725.061C1.44301 734.193 0.853951 743.984 0.486323 754.388L4.48383 754.529ZM10.359 696.658C12.5486 685.898 15.3769 676.722 18.9461 669.228L15.3348 667.508C11.5826 675.386 8.67024 684.897 6.43933 695.861L10.359 696.658ZM37.1244 648.619C41.0637 646.62 45.4694 645.459 50.4129 645.201L50.2047 641.206C44.7451 641.491 39.7881 642.782 35.3147 645.051L37.1244 648.619ZM50.4129 645.201C55.7182 644.924 61.0362 645.334 66.2826 646.377L67.0626 642.454C61.5051 641.349 55.8551 640.912 50.2047 641.206L50.4129 645.201ZM95.3983 659.222C103.844 665.226 111.487 672.975 117.799 682.131L121.092 679.86C114.525 670.333 106.555 662.245 97.7158 655.962L95.3983 659.222ZM131.562 711.162C134.463 721.061 136.006 731.766 135.853 743.057L139.852 743.112C140.011 731.42 138.413 720.317 135.401 710.037L131.562 711.162ZM134.502 759.175C133.756 764.048 132.198 769.033 130.031 773.609L133.646 775.321C135.969 770.413 137.648 765.058 138.456 759.781L134.502 759.175ZM109.097 792.016C102.86 792.073 95.4977 787.451 88.6066 773.244L85.0077 774.99C92.1305 789.674 100.545 796.095 109.133 796.016L109.097 792.016ZM82.9541 758.864C81.7096 755.006 80.5967 749.988 79.6563 743.976L75.7044 744.594C76.6629 750.722 77.8155 755.964 79.1473 760.092L82.9541 758.864ZM76.8133 713.025C76.3878 703.408 76.2591 692.906 76.4708 681.826L72.4715 681.749C72.2583 692.907 72.3877 703.493 72.8172 713.202L76.8133 713.025ZM77.9069 650.649C78.6467 640.45 79.6663 630.031 80.9927 619.586L77.0246 619.082C75.6886 629.602 74.6621 640.092 73.9174 650.36L77.9069 650.649ZM85.8414 588.779C87.8107 578.414 90.1163 568.221 92.7848 558.397L88.9246 557.348C86.2258 567.284 83.8979 577.578 81.9117 588.032L85.8414 588.779ZM102.441 528.846C106.42 518.691 110.908 509.316 115.941 501.008L112.52 498.935C107.346 507.477 102.761 517.065 98.7167 527.386L102.441 528.846ZM135.191 477.299C139.123 473.86 143.273 470.97 147.65 468.691L145.802 465.143C141.115 467.585 136.704 470.662 132.558 474.288L135.191 477.299ZM147.65 468.691C152.165 466.339 156.568 464.646 160.857 463.543L159.861 459.669C155.253 460.854 150.566 462.662 145.802 465.143L147.65 468.691ZM188.624 464.448C197.138 467.257 205.23 472.319 212.863 479.084L215.516 476.09C207.585 469.062 199.03 463.669 189.878 460.649L188.624 464.448ZM231.996 500.629C237.5 508.205 242.637 516.524 247.387 525.242L250.9 523.328C246.084 514.49 240.856 506.019 235.232 498.277L231.996 500.629ZM260.11 551.445C264.075 560.577 267.628 569.751 270.75 578.617L274.523 577.288C271.372 568.342 267.785 559.079 263.779 549.852L260.11 551.445ZM279.516 606.453C280.908 611.474 282.109 616.197 283.116 620.527L287.012 619.622C285.992 615.234 284.777 610.456 283.371 605.384L279.516 606.453ZM283.116 620.527C284.137 624.921 284.879 629.59 285.363 634.442L289.343 634.045C288.845 629.046 288.078 624.205 287.012 619.622L283.116 620.527ZM285.526 662.832C284.789 672.438 283.318 682.022 281.277 690.979L285.177 691.867C287.261 682.72 288.762 672.941 289.514 663.138L285.526 662.832ZM272.478 717.916C269.855 723.623 266.998 728.307 264.036 731.671C261.056 735.055 258.121 736.934 255.359 737.396L256.018 741.341C260.052 740.667 263.749 738.049 267.038 734.315C270.344 730.561 273.393 725.504 276.112 719.586L272.478 717.916ZM237.663 720.469C234.59 713.785 231.583 704.973 228.737 693.698L224.859 694.677C227.742 706.102 230.822 715.164 234.029 722.14L237.663 720.469ZM222.936 665.727C221.458 657.115 220.058 647.62 218.753 637.183L214.784 637.679C216.096 648.169 217.504 657.725 218.994 666.404L222.936 665.727ZM215.674 608.862C215.231 604.154 214.804 599.295 214.395 594.281L210.408 594.606C210.819 599.636 211.247 604.511 211.692 609.237L215.674 608.862ZM214.395 594.281C213.987 589.28 213.634 584.322 213.336 579.408L209.343 579.651C209.643 584.592 209.998 589.578 210.408 594.606L214.395 594.281ZM212.169 549.836C211.989 539.737 212.042 529.838 212.314 520.141L208.315 520.029C208.042 529.787 207.989 539.747 208.169 549.907L212.169 549.836ZM213.852 490.539C214.622 480.478 215.632 470.656 216.863 461.075L212.896 460.565C211.656 470.215 210.639 480.105 209.864 490.234L213.852 490.539ZM221.437 431.787C223.274 421.838 225.355 412.182 227.656 402.82L223.772 401.865C221.452 411.303 219.355 421.036 217.504 431.06L221.437 431.787ZM235.593 374.342C238.626 364.654 241.899 355.329 245.379 346.372L241.651 344.924C238.138 353.965 234.835 363.374 231.776 373.147L235.593 374.342ZM257.086 319.18C261.457 309.977 266.049 301.245 270.814 292.986L267.35 290.987C262.53 299.339 257.889 308.167 253.473 317.464L257.086 319.18ZM286.676 268.075C292.59 259.659 298.671 251.891 304.848 244.777L301.827 242.155C295.558 249.375 289.393 257.251 283.404 265.775L286.676 268.075ZM325.459 223.708C333.246 216.702 341.053 210.711 348.743 205.743L346.573 202.383C338.689 207.476 330.715 213.599 322.784 220.734L325.459 223.708ZM374.807 192.604C379.62 190.885 384.303 189.627 388.817 188.827L388.119 184.888C383.364 185.731 378.465 187.05 373.462 188.837L374.807 192.604ZM388.817 188.827C393.384 188.017 398.219 187.951 403.296 188.592L403.797 184.623C398.373 183.939 393.13 184 388.119 184.888L388.817 188.827ZM431.38 197.945C439.548 202.106 448.031 207.516 456.718 214.022L459.116 210.821C450.286 204.207 441.609 198.667 433.195 194.381L431.38 197.945ZM479.855 233.458C486.961 240.042 494.125 247.223 501.29 254.916L504.217 252.189C496.992 244.432 489.759 237.182 482.573 230.524L479.855 233.458ZM521.253 277.655C527.575 285.268 533.856 293.223 540.058 301.461L543.254 299.055C537.016 290.769 530.695 282.764 524.33 275.1L521.253 277.655ZM557.779 326.084C563.466 334.344 569.047 342.805 574.49 351.419L577.872 349.282C572.401 340.625 566.791 332.119 561.073 323.816L557.779 326.084ZM590.204 377.376C595.282 386.14 600.193 395.004 604.905 403.921L608.442 402.051C603.705 393.089 598.769 384.179 593.665 375.371L590.204 377.376ZM618.539 431.039C622.938 440.265 627.093 449.494 630.97 458.674L634.655 457.118C630.753 447.88 626.573 438.595 622.149 429.317L618.539 431.039ZM642.062 486.929C645.584 496.664 648.74 506.277 651.487 515.702L655.327 514.583C652.554 505.069 649.372 495.376 645.823 485.568L642.062 486.929ZM658.804 545.009C660.921 555.355 662.43 565.351 663.269 574.896L667.253 574.546C666.399 564.828 664.866 554.681 662.723 544.207L658.804 545.009ZM663.495 604.911C663.051 610.047 662.332 614.969 661.325 619.654L665.236 620.495C666.281 615.63 667.023 610.542 667.481 605.255L663.495 604.911ZM661.325 619.654C660.299 624.428 659.106 628.963 657.767 633.215L661.582 634.416C662.961 630.038 664.185 625.382 665.236 620.495L661.325 619.654ZM645.993 658.241C639.229 667.651 631.768 671.611 624.48 669.786L623.509 673.666C633.178 676.088 642.107 670.499 649.241 660.576L645.993 658.241ZM605.56 651.763C601.739 645.208 597.989 636.771 594.423 626.217L590.634 627.498C594.26 638.231 598.112 646.93 602.104 653.777L605.56 651.763ZM586.806 599.018C584.85 590.642 582.995 581.439 581.263 571.362L577.321 572.04C579.064 582.185 580.935 591.466 582.911 599.928L586.806 599.018ZM577.075 543.335C576.485 538.768 575.916 534.059 575.371 529.207L571.396 529.653C571.944 534.527 572.515 539.258 573.108 543.848L577.075 543.335ZM575.371 529.207C574.836 524.441 574.421 519.616 574.12 514.738L570.128 514.984C570.432 519.927 570.854 524.818 571.396 529.653L575.371 529.207ZM573.662 485.509C573.925 475.951 574.575 466.24 575.587 456.409L571.608 455.999C570.586 465.924 569.93 475.735 569.664 485.399L573.662 485.509ZM579.543 427.442C581.148 417.935 583.058 408.353 585.252 398.724L581.352 397.835C579.142 407.534 577.217 417.191 575.599 426.776L579.543 427.442ZM592.488 370.346C595.111 361.029 597.978 351.696 601.069 342.374L597.272 341.115C594.163 350.493 591.278 359.884 588.638 369.262L592.488 370.346ZM610.876 314.782C614.328 305.678 617.978 296.609 621.809 287.602L618.128 286.037C614.277 295.092 610.607 304.209 607.136 313.364L610.876 314.782ZM633.79 260.864C637.957 252.015 642.288 243.252 646.762 234.599L643.209 232.762C638.712 241.458 634.36 250.265 630.171 259.16L633.79 260.864ZM660.697 208.832C665.537 200.266 670.508 191.84 675.593 183.582L672.187 181.485C667.076 189.786 662.079 198.255 657.214 206.865L660.697 208.832ZM691.441 158.927C696.952 150.715 702.564 142.713 708.257 134.953L705.031 132.587C699.305 140.394 693.661 148.441 688.12 156.698L691.441 158.927ZM726.068 111.782C732.34 104.006 738.678 96.5436 745.057 89.4318L742.079 86.761C735.652 93.9274 729.268 101.443 722.955 109.271L726.068 111.782ZM765.235 68.2489C772.409 61.1833 779.598 54.603 786.763 48.558L784.184 45.5007C776.933 51.6175 769.669 58.2677 762.428 65.3989L765.235 68.2489ZM809.952 30.8394C818.436 25.0515 826.82 20.1177 835.042 16.1192L833.293 12.522C824.871 16.6175 816.318 21.6537 807.698 27.5352L809.952 30.8394ZM862.153 6.27638C872.059 4.00241 881.561 3.40056 890.547 4.61335L891.082 0.649295C881.548 -0.637563 871.556 0.0137564 861.258 2.37778L862.153 6.27638ZM904.318 8.06604C908.67 9.70329 913.019 11.9179 917.357 14.6805L919.506 11.3064C914.964 8.41444 910.368 6.06856 905.726 4.32219L904.318 8.06604ZM939.907 33.9546C946.248 40.7401 952.51 48.5827 958.668 57.3544L961.942 55.056C955.698 46.162 949.32 38.1692 942.83 31.2235L939.907 33.9546ZM974.722 82.6729C979.557 91.0434 984.305 99.9421 988.953 109.297L992.535 107.517C987.854 98.0962 983.067 89.1231 978.185 80.6721L974.722 82.6729ZM1001.71 136.654C1005.66 145.644 1009.51 154.937 1013.27 164.481L1016.99 163.015C1013.22 153.427 1009.34 144.087 1005.37 135.047L1001.71 136.654ZM1023.88 192.755C1027.22 202.126 1030.48 211.675 1033.63 221.358L1037.44 220.119C1034.27 210.402 1031 200.818 1027.64 191.409L1023.88 192.755ZM1042.63 250.214C1045.49 259.826 1048.25 269.525 1050.91 279.273L1054.77 278.221C1052.11 268.444 1049.33 258.715 1046.46 249.072L1042.63 250.214ZM1058.53 308.507C1060.97 318.313 1063.3 328.129 1065.5 337.916L1069.4 337.036C1067.19 327.221 1064.86 317.376 1062.41 307.542L1058.53 308.507ZM1071.83 367.477C1073.85 377.46 1075.73 387.371 1077.48 397.166L1081.42 396.464C1079.66 386.638 1077.77 376.697 1075.75 366.684L1071.83 367.477ZM1082.41 426.953C1083.96 437.099 1085.34 447.064 1086.54 456.796L1090.51 456.305C1089.3 446.533 1087.92 436.531 1086.36 426.35L1082.41 426.953ZM1089.77 486.93C1090.71 497.357 1091.4 507.412 1091.85 517.019L1095.84 516.833C1095.39 507.163 1094.69 497.051 1093.76 486.573L1089.77 486.93ZM1092.4 547.176C1092.24 558.077 1091.66 568.096 1090.62 577.08L1094.59 577.538C1095.65 568.393 1096.24 558.237 1096.39 547.233L1092.4 547.176ZM1084.34 606.266C1082.43 611.455 1080.2 615.653 1077.66 618.826L1080.79 621.323C1083.67 617.719 1086.09 613.105 1088.1 607.648L1084.34 606.266ZM1077.66 618.826C1074.28 623.063 1070.93 626.775 1067.64 629.991L1070.44 632.852C1073.86 629.508 1077.31 625.672 1080.79 621.323L1077.66 618.826ZM1043.27 645.476C1033.58 648.218 1024.46 646.545 1015.99 641.191L1013.85 644.572C1023.19 650.474 1033.47 652.404 1044.36 649.325L1043.27 645.476ZM995.928 620.018C991.021 612.476 986.514 603.535 982.479 593.445L978.765 594.93C982.875 605.208 987.496 614.393 992.576 622.2L995.928 620.018ZM973.145 564.986C970.666 555.704 968.516 545.872 966.724 535.619L962.783 536.307C964.594 546.667 966.769 556.614 969.28 566.018L973.145 564.986ZM962.655 505.795C961.674 495.992 961.003 485.95 960.664 475.761L956.667 475.894C957.008 486.171 957.685 496.301 958.675 506.194L962.655 505.795ZM960.637 445.666C960.952 435.68 961.592 425.644 962.575 415.64L958.594 415.249C957.602 425.343 956.956 435.468 956.639 445.541L960.637 445.666ZM966.57 385.829C967.419 380.873 968.359 375.947 969.393 371.061L965.48 370.233C964.435 375.171 963.485 380.148 962.628 385.154L966.57 385.829ZM969.393 371.061C970.418 366.22 971.577 361.352 972.864 356.467L968.996 355.447C967.693 360.394 966.518 365.325 965.48 370.233L969.393 371.061ZM981.795 327.794C985.125 318.492 988.871 309.176 992.993 299.891L989.337 298.268C985.178 307.638 981.394 317.046 978.029 326.445L981.795 327.794ZM1006.11 272.815C1010.74 263.991 1015.69 255.239 1020.91 246.604L1017.48 244.535C1012.22 253.237 1007.24 262.058 1002.57 270.956L1006.11 272.815ZM1037.2 221.295C1042.88 213.007 1048.79 204.873 1054.89 196.936L1051.72 194.497C1045.57 202.492 1039.62 210.686 1033.9 219.036L1037.2 221.295ZM1073.91 173.596C1080.53 165.929 1087.31 158.51 1094.23 151.385L1091.36 148.599C1084.39 155.782 1077.55 163.258 1070.88 170.983L1073.91 173.596ZM1115.85 130.462C1123.42 123.6 1131.09 117.117 1138.82 111.066L1136.36 107.916C1128.55 114.03 1120.8 120.575 1113.17 127.498L1115.85 130.462ZM1163.22 93.5467C1171.88 87.892 1180.55 82.8371 1189.17 78.4508L1187.36 74.8859C1178.6 79.3433 1169.8 84.4717 1161.03 90.1973L1163.22 93.5467ZM1216.66 66.7255C1226.53 63.3679 1236.22 61.0283 1245.64 59.8093L1245.13 55.8424C1235.41 57.0999 1225.45 59.5072 1215.37 62.9389L1216.66 66.7255ZM1260.42 58.8307C1265.57 58.8307 1270.65 58.9526 1275.65 59.1827L1275.83 55.187C1270.77 54.9541 1265.63 54.8307 1260.42 54.8307V58.8307ZM1305.98 61.9379C1316.52 63.3624 1326.54 65.2001 1335.96 67.2877L1336.83 63.3825C1327.31 61.2725 1317.17 59.4145 1306.52 57.9739L1305.98 61.9379ZM1365.43 75.0827C1376.47 78.4834 1386.13 82.0091 1394.17 85.2173L1395.65 81.5024C1387.53 78.2591 1377.76 74.6962 1366.6 71.2599L1365.43 75.0827Z" fill="#F47E20"/>
</svg>
